<svg xmlns="http://www.w3.org/2000/svg" viewBox="0 0 672.8 90" width="672.8" height="90" font-family="Verdana, Arial, sans-serif">
<g><rect x="0.0" y="0.0" width="107.2" height="38" rx="19.0" fill="#ffffff" stroke="#339933" stroke-width="1.6"/><circle cx="23.0" cy="19.0" r="5" fill="#339933"/><text x="36.0" y="23.9" font-size="14" font-weight="600" fill="#339933">Node.js</text></g>
<g><rect x="119.2" y="0.0" width="99.6" height="38" rx="19.0" fill="#ffffff" stroke="#092E20" stroke-width="1.6"/><circle cx="142.2" cy="19.0" r="5" fill="#092E20"/><text x="155.2" y="23.9" font-size="14" font-weight="600" fill="#092E20">Django</text></g>
<g><rect x="230.8" y="0.0" width="92.0" height="38" rx="19.0" fill="#ffffff" stroke="#555555" stroke-width="1.6"/><circle cx="253.8" cy="19.0" r="5" fill="#555555"/><text x="266.8" y="23.9" font-size="14" font-weight="600" fill="#555555">Flask</text></g>
<g><rect x="334.8" y="0.0" width="107.2" height="38" rx="19.0" fill="#ffffff" stroke="#009688" stroke-width="1.6"/><circle cx="357.8" cy="19.0" r="5" fill="#009688"/><text x="370.8" y="23.9" font-size="14" font-weight="600" fill="#009688">FastAPI</text></g>
<g><rect x="454.0" y="0.0" width="99.6" height="38" rx="19.0" fill="#ffffff" stroke="#6DB33F" stroke-width="1.6"/><circle cx="477.0" cy="19.0" r="5" fill="#6DB33F"/><text x="490.0" y="23.9" font-size="14" font-weight="600" fill="#6DB33F">Spring</text></g>
<g><rect x="565.6" y="0.0" width="107.2" height="38" rx="19.0" fill="#ffffff" stroke="#FF2D20" stroke-width="1.6"/><circle cx="588.6" cy="19.0" r="5" fill="#FF2D20"/><text x="601.6" y="23.9" font-size="14" font-weight="600" fill="#FF2D20">Laravel</text></g>
<g><rect x="234.6" y="52.0" width="84.4" height="38" rx="19.0" fill="#ffffff" stroke="#512BD4" stroke-width="1.6"/><circle cx="257.6" cy="71.0" r="5" fill="#512BD4"/><text x="270.6" y="75.9" font-size="14" font-weight="600" fill="#512BD4">.NET</text></g>
<g><rect x="331.0" y="52.0" width="107.2" height="38" rx="19.0" fill="#ffffff" stroke="#E10098" stroke-width="1.6"/><circle cx="354.0" cy="71.0" r="5" fill="#E10098"/><text x="367.0" y="75.9" font-size="14" font-weight="600" fill="#E10098">GraphQL</text></g>
</svg>