<svg xmlns="http://www.w3.org/2000/svg" viewBox="0 0 680.4 90" width="680.4" height="90" font-family="Verdana, Arial, sans-serif">
<g><rect x="0.0" y="0.0" width="76.8" height="38" rx="19.0" fill="#ffffff" stroke="#FF9900" stroke-width="1.6"/><circle cx="23.0" cy="19.0" r="5" fill="#FF9900"/><text x="36.0" y="23.9" font-size="14" font-weight="600" fill="#B36B00">AWS</text></g>
<g><rect x="88.8" y="0.0" width="92.0" height="38" rx="19.0" fill="#ffffff" stroke="#0078D4" stroke-width="1.6"/><circle cx="111.8" cy="19.0" r="5" fill="#0078D4"/><text x="124.8" y="23.9" font-size="14" font-weight="600" fill="#0078D4">Azure</text></g>
<g><rect x="192.8" y="0.0" width="145.2" height="38" rx="19.0" fill="#ffffff" stroke="#4285F4" stroke-width="1.6"/><circle cx="215.8" cy="19.0" r="5" fill="#4285F4"/><text x="228.8" y="23.9" font-size="14" font-weight="600" fill="#4285F4">Google Cloud</text></g>
<g><rect x="350.0" y="0.0" width="99.6" height="38" rx="19.0" fill="#ffffff" stroke="#2496ED" stroke-width="1.6"/><circle cx="373.0" cy="19.0" r="5" fill="#2496ED"/><text x="386.0" y="23.9" font-size="14" font-weight="600" fill="#2496ED">Docker</text></g>
<g><rect x="461.6" y="0.0" width="130.0" height="38" rx="19.0" fill="#ffffff" stroke="#326CE5" stroke-width="1.6"/><circle cx="484.6" cy="19.0" r="5" fill="#326CE5"/><text x="497.6" y="23.9" font-size="14" font-weight="600" fill="#326CE5">Kubernetes</text></g>
<g><rect x="603.6" y="0.0" width="76.8" height="38" rx="19.0" fill="#ffffff" stroke="#F05032" stroke-width="1.6"/><circle cx="626.6" cy="19.0" r="5" fill="#F05032"/><text x="639.6" y="23.9" font-size="14" font-weight="600" fill="#F05032">Git</text></g>
<g><rect x="290.4" y="52.0" width="99.6" height="38" rx="19.0" fill="#ffffff" stroke="#6E5494" stroke-width="1.6"/><circle cx="313.4" cy="71.0" r="5" fill="#6E5494"/><text x="326.4" y="75.9" font-size="14" font-weight="600" fill="#6E5494">GitHub</text></g>
</svg>