<svg xmlns="http://www.w3.org/2000/svg" viewBox="0 0 731.2 90" width="731.2" height="90" font-family="Verdana, Arial, sans-serif">
<g><rect x="0.0" y="0.0" width="130.0" height="38" rx="19.0" fill="#ffffff" stroke="#F7DF1E" stroke-width="1.6"/><circle cx="23.0" cy="19.0" r="5" fill="#F7DF1E"/><text x="36.0" y="23.9" font-size="14" font-weight="600" fill="#1a1a1a">JavaScript</text></g>
<g><rect x="142.0" y="0.0" width="130.0" height="38" rx="19.0" fill="#ffffff" stroke="#3178C6" stroke-width="1.6"/><circle cx="165.0" cy="19.0" r="5" fill="#3178C6"/><text x="178.0" y="23.9" font-size="14" font-weight="600" fill="#3178C6">TypeScript</text></g>
<g><rect x="284.0" y="0.0" width="99.6" height="38" rx="19.0" fill="#ffffff" stroke="#3776AB" stroke-width="1.6"/><circle cx="307.0" cy="19.0" r="5" fill="#3776AB"/><text x="320.0" y="23.9" font-size="14" font-weight="600" fill="#3776AB">Python</text></g>
<g><rect x="395.6" y="0.0" width="84.4" height="38" rx="19.0" fill="#ffffff" stroke="#ED8B00" stroke-width="1.6"/><circle cx="418.6" cy="19.0" r="5" fill="#ED8B00"/><text x="431.6" y="23.9" font-size="14" font-weight="600" fill="#ED8B00">Java</text></g>
<g><rect x="492.0" y="0.0" width="76.8" height="38" rx="19.0" fill="#ffffff" stroke="#00599C" stroke-width="1.6"/><circle cx="515.0" cy="19.0" r="5" fill="#00599C"/><text x="528.0" y="23.9" font-size="14" font-weight="600" fill="#00599C">C++</text></g>
<g><rect x="580.8" y="0.0" width="61.6" height="38" rx="19.0" fill="#ffffff" stroke="#5C6BC0" stroke-width="1.6"/><circle cx="603.8" cy="19.0" r="5" fill="#5C6BC0"/><text x="616.8" y="23.9" font-size="14" font-weight="600" fill="#5C6BC0">C</text></g>
<g><rect x="654.4" y="0.0" width="76.8" height="38" rx="19.0" fill="#ffffff" stroke="#777BB4" stroke-width="1.6"/><circle cx="677.4" cy="19.0" r="5" fill="#777BB4"/><text x="690.4" y="23.9" font-size="14" font-weight="600" fill="#777BB4">PHP</text></g>
<g><rect x="267.6" y="52.0" width="99.6" height="38" rx="19.0" fill="#ffffff" stroke="#7F52FF" stroke-width="1.6"/><circle cx="290.6" cy="71.0" r="5" fill="#7F52FF"/><text x="303.6" y="75.9" font-size="14" font-weight="600" fill="#7F52FF">Kotlin</text></g>
<g><rect x="379.2" y="52.0" width="84.4" height="38" rx="19.0" fill="#ffffff" stroke="#0175C2" stroke-width="1.6"/><circle cx="402.2" cy="71.0" r="5" fill="#0175C2"/><text x="415.2" y="75.9" font-size="14" font-weight="600" fill="#0175C2">Dart</text></g>
</svg>